#!OML:ASF X:\für Bonn\!DataBase\2005_08_10_Bjorn_Final\c3d\bjorn.ASF
:FULLY-SPECIFIED
:DEGREES
355
root 20.7581 19.3852 -1.29362 -4.03942 -74.0391 -343.71
lowerback 22.3041 1.38566 3.4778
upperback 17.0949 0.966964 -1.91234
thorax 6.67 0.434828 -4.25424
lowerneck -4.5507 -4.19497 5.42336
upperneck -11.3527 -5.6719 4.39491
head -2.87371 -3.30959 0.570284
rclavicle 3.49861e-014 -2.3059e-014
rhumerus -8.1846 15.541 -78.9531
rradius 33.3013
rwrist -3.0393
rhand -14.6939 14.5872
rfingers 7.12502
rthumb 11.4599 -15.0796
lclavicle 3.49861e-014 -2.3059e-014
lhumerus 12.0886 -45.6869 59.5982
lradius 47.564
lwrist -3.27759
lhand -28.5575 -5.79221
lfingers 7.12502
lthumb -1.92439 24.1789
rfemur -23.1112 -9.3671 14.6219
rtibia 32.8093
rfoot -15.728 11.0591
rtoes -1.02608
lfemur -19.4863 8.81395 -15.4536
ltibia 28.0433
lfoot -8.48567 -0.0180926
ltoes -19.2447
356
root 20.6751 19.3832 -1.30322 -4.37109 -74.2706 -343.72
lowerback 21.3818 1.34642 3.40439
upperback 16.7697 0.950148 -2.05193
thorax 6.73339 0.442428 -4.34576
lowerneck -4.13417 -4.1774 5.45622
upperneck -11.224 -5.62361 4.23803
head -2.91033 -3.27528 0.522214
rclavicle -5.88403e-014 -2.82274e-014
rhumerus -9.33005 15.3774 -79.6798
rradius 33.4008
rwrist -2.92125
rhand -14.4442 14.5143
rfingers 7.12502
rthumb 11.7008 -15.1389
lclavicle -5.88403e-014 -2.82274e-014
lhumerus 10.2527 -45.972 60.4799
lradius 47.8189
lwrist -3.09462
lhand -28.5029 -5.89236
lfingers 7.12502
lthumb -1.87162 24.0792
rfemur -22.3771 -9.43195 14.7003
rtibia 32.5853
rfoot -15.7953 11.4455
rtoes -0.601457
lfemur -18.685 8.67685 -15.1619
ltibia 27.8718
lfoot -8.60507 0.188076
ltoes -19.3583
357
root 20.592 19.3804 -1.31305 -4.72717 -74.5202 -343.651
lowerback 20.4384 1.31303 3.25842
upperback 16.4182 0.933317 -2.16208
thorax 6.77883 0.441073 -4.36315
lowerneck -3.75191 -4.13559 5.4298
upperneck -11.0544 -5.5449 4.08766
head -2.92433 -3.22163 0.483284
rclavicle -7.23576e-014 3.22031e-014
rhumerus -10.4276 15.2822 -80.3342
rradius 33.4231
rwrist -2.78905
rhand -14.2128 14.5457
rfingers 7.12502
rthumb 11.9239 -15.0947
lclavicle -7.23576e-014 3.22031e-014
lhumerus 8.3425 -46.1754 61.4907
lradius 48.0336
lwrist -2.96328
lhand -28.411 -5.95671
lfingers 7.12502
lthumb -1.78284 24.0156
rfemur -21.7164 -9.48992 14.7622
rtibia 32.3709
rfoot -15.8843 11.8318
rtoes -0.324979
lfemur -17.9486 8.57925 -14.9113
ltibia 27.7179
lfoot -8.72842 0.410726
ltoes -19.5714
358
root 20.508 19.3749 -1.32374 -4.96162 -74.8114 -343.698
lowerback 19.5299 1.29786 3.17755
upperback 16.0398 0.952559 -2.29686
thorax 6.79094 0.464977 -4.44922
lowerneck -3.59931 -4.10522 5.46938
upperneck -10.5759 -5.5067 3.94059
head -2.79391 -3.1768 0.421584
rclavicle -5.96354e-015 3.1408e-014
rhumerus -11.5488 15.0886 -81.0338
rradius 33.452
rwrist -2.66258
rhand -14.0199 14.5351
rfingers 7.12502
rthumb 12.1099 -15.0944
lclavicle -5.96354e-015 3.1408e-014
lhumerus 6.42814 -46.4438 62.4482
lradius 48.2949
lwrist -2.77654
lhand -28.2783 -5.93623
lfingers 7.12502
lthumb -1.6547 24.0371
rfemur -21.074 -9.50652 14.8662
rtibia 32.1767
rfoot -15.9858 12.2033
rtoes -0.153963
lfemur -17.2232 8.51958 -14.6201
ltibia 27.5816
lfoot -8.86193 0.617733
ltoes -19.8026
359
root 20.4231 19.3693 -1.33442 -5.16006 -75.1022 -343.745
lowerback 18.5916 1.28122 3.07565
upperback 15.6718 0.96534 -2.39786
thorax 6.83553 0.481894 -4.48486
lowerneck -3.70769 -4.06607 5.42954
upperneck -9.8858 -5.48223 3.78507
head -2.54389 -3.12663 0.359617
rclavicle 1.59028e-015 -6.36111e-015
rhumerus -12.5583 14.9896 -81.6192
rradius 33.4379
rwrist -2.62068
rhand -13.8366 14.5394
rfingers 7.12502
rthumb 12.2867 -15.0796
lclavicle 1.59028e-015 -6.36111e-015
lhumerus 4.51871 -46.5797 63.4934
lradius 48.4947
lwrist -2.75573
lhand -28.2934 -5.9891
lfingers 7.12502
lthumb -1.66932 23.9841
rfemur -20.4707 -9.48901 14.9703
rtibia 31.9916
rfoot -16.0925 12.5421
rtoes 0.243525
lfemur -16.551 8.47456 -14.3407
ltibia 27.465
lfoot -8.99293 0.807898
ltoes -20.1373
360
root 20.3393 19.3638 -1.34517 -5.41669 -75.3852 -343.727
lowerback 17.6985 1.25661 2.98479
upperback 15.2945 0.970315 -2.51329
thorax 6.85368 0.495906 -4.54172
lowerneck -4.00373 -4.01142 5.41746
upperneck -8.98404 -5.45763 3.59896
head -2.19574 -3.06845 0.275988
rclavicle 1.07344e-014 -2.08724e-014
rhumerus -13.5298 14.903 -82.1973
rradius 33.4075
rwrist -2.56033
rhand -13.6656 14.5847
rfingers 7.12502
rthumb 12.4515 -15.0244
lclavicle 1.07344e-014 -2.08724e-014
lhumerus 2.59776 -46.6965 64.5204
lradius 48.7039
lwrist -2.76113
lhand -28.3687 -6.10624
lfingers 7.12502
lthumb -1.74202 23.8664
rfemur -19.8803 -9.52879 15.0556
rtibia 31.8157
rfoot -16.1955 12.9256
rtoes 0.303182
lfemur -15.8897 8.46645 -14.0915
ltibia 27.3552
lfoot -9.0956 0.991748
ltoes -20.7377
361
root 20.2521 19.3578 -1.35561 -5.67178 -75.6641 -343.682
lowerback 16.7709 1.23529 2.90979
upperback 14.9162 0.981762 -2.63667
thorax 6.89773 0.515699 -4.61622
lowerneck -4.34097 -3.9638 5.41663
upperneck -8.0323 -5.44379 3.45007
head -1.8296 -3.01632 0.202844
rclavicle 2.60408e-014 3.43897e-014
rhumerus -14.467 14.7661 -82.7619
rradius 33.385
rwrist -2.52574
rhand -13.5056 14.602
rfingers 7.12502
rthumb 12.6058 -14.9977
lclavicle 2.60408e-014 3.43897e-014
lhumerus 0.727346 -46.7871 65.5398
lradius 48.881
lwrist -2.77032
lhand -28.3453 -6.13422
lfingers 7.12502
lthumb -1.7194 23.8386
rfemur -19.3005 -9.56879 15.1345
rtibia 31.6347
rfoot -16.3181 13.3294
rtoes 0.538185
lfemur -15.2535 8.40959 -13.8495
ltibia 27.2445
lfoot -9.20727 1.18963
ltoes -21.0145
362
root 20.1632 19.3511 -1.36777 -5.93167 -75.9199 -343.623
lowerback 15.8448 1.22172 2.81268
upperback 14.531 1.00144 -2.73951
thorax 6.93926 0.536275 -4.65628
lowerneck -4.64852 -3.92445 5.42124
upperneck -7.03915 -5.43995 3.26154
head -1.46334 -2.96843 0.119013
rclavicle -5.84427e-014 2.70347e-014
rhumerus -15.3692 14.5015 -83.2846
rradius 33.3201
rwrist -2.3546
rhand -13.3969 14.7084
rfingers 7.12502
rthumb 12.7106 -14.8847
lclavicle -5.84427e-014 2.70347e-014
lhumerus -1.16764 -46.8548 66.6103
lradius 49.0622
lwrist -2.73479
lhand -28.2874 -6.19625
lfingers 7.12502
lthumb -1.66353 23.777
rfemur -18.7186 -9.54078 15.2078
rtibia 31.4489
rfoot -16.4397 13.6234
rtoes 0.792608
lfemur -14.6224 8.41326 -13.622
ltibia 27.1278
lfoot -9.2838 1.36507
ltoes -21.5404
363
root 20.074 19.3443 -1.3793 -6.26657 -76.1664 -343.475
lowerback 14.9385 1.20498 2.7495
upperback 14.1183 1.02362 -2.8842
thorax 6.94905 0.562878 -4.76059
lowerneck -4.88531 -3.89274 5.48162
upperneck -6.03959 -5.44088 3.0929
head -1.11455 -2.92619 0.0361539
rclavicle -6.27166e-014 -1.47101e-014
rhumerus -16.2941 14.2752 -83.8494
rradius 33.277
rwrist -2.29615
rhand -13.312 14.7294
rfingers 7.12502
rthumb 12.7925 -14.8587
lclavicle -6.27166e-014 -1.47101e-014
lhumerus -3.09072 -46.9691 67.6496
lradius 49.2513
lwrist -2.66159
lhand -28.2145 -6.27363
lfingers 7.12502
lthumb -1.59305 23.7002
rfemur -18.1362 -9.57697 15.258
rtibia 31.247
rfoot -16.5789 13.9707
rtoes 0.944511
lfemur -14.0035 8.42435 -13.4167
ltibia 27.0083
lfoot -9.36199 1.48763
ltoes -21.5448
364
root 19.9839 19.3376 -1.39141 -6.62586 -76.4657 -343.323
lowerback 14.0648 1.19708 2.64085
upperback 13.711 1.05053 -3.00217
thorax 6.95174 0.585001 -4.8107
lowerneck -4.93882 -3.84388 5.52959
upperneck -5.20918 -5.39998 2.92345
head -0.852816 -2.87132 -0.0366766
rclavicle 2.5842e-014 -1.04362e-014
rhumerus -17.1712 14.0558 -84.3675
rradius 33.2457
rwrist -2.19889
rhand -13.2318 14.7575
rfingers 7.12502
rthumb 12.8698 -14.8257
lclavicle 2.5842e-014 -1.04362e-014
lhumerus -5.04864 -46.997 68.7143
lradius 49.4641
lwrist -2.58279
lhand -28.0402 -6.24408
lfingers 7.12502
lthumb -1.4247 23.7309
rfemur -17.5322 -9.54165 15.3126
rtibia 31.0206
rfoot -16.6983 14.3025
rtoes 1.13845
lfemur -13.3637 8.43353 -13.213
ltibia 26.8982
lfoot -9.45129 1.73427
ltoes -22.0836
365
root 19.8933 19.3318 -1.40218 -7.06813 -76.79 -343.121
lowerback 13.2375 1.17709 2.53103
upperback 13.303 1.06077 -3.13298
thorax 6.93334 0.597971 -4.87307
lowerneck -4.83558 -3.78289 5.54706
upperneck -4.46873 -5.32598 2.79378
head -0.644424 -2.80478 -0.0868928
rclavicle 5.31749e-015 1.49585e-014
rhumerus -18.0416 13.8961 -84.9138
rradius 33.239
rwrist -2.10314
rhand -13.1803 14.7497
rfingers 7.12502
rthumb 12.9194 -14.8304
lclavicle 5.31749e-015 1.49585e-014
lhumerus -7.04775 -46.9116 69.8097
lradius 49.6337
lwrist -2.55193
lhand -27.8253 -6.20716
lfingers 7.12502
lthumb -1.21714 23.7691
rfemur -16.878 -9.45515 15.3489
rtibia 30.7818
rfoot -16.8384 14.6011
rtoes 1.24176
lfemur -12.6838 8.42102 -13.0159
ltibia 26.806
lfoot -9.56323 2.01415
ltoes -22.0643
366
root 19.8006 19.3272 -1.41325 -7.66106 -77.1325 -342.749
lowerback 12.4219 1.16022 2.36457
upperback 12.8707 1.07253 -3.26654
thorax 6.88445 0.606297 -4.9059
lowerneck -4.54737 -3.71253 5.59094
upperneck -3.87923 -5.22303 2.64785
head -0.5143 -2.73138 -0.139834
rclavicle -2.11954e-014 -6.92578e-014
rhumerus -18.9178 13.6689 -85.4591
rradius 33.2637
rwrist -1.99296
rhand -13.074 14.6926
rfingers 7.12502
rthumb 13.0219 -14.881
lclavicle -2.11954e-014 -6.92578e-014
lhumerus -9.09188 -46.7211 70.9588
lradius 49.759
lwrist -2.57961
lhand -27.5563 -6.21263
lfingers 7.12502
lthumb -0.95736 23.765
rfemur -16.225 -9.3768 15.3511
rtibia 30.5206
rfoot -16.945 14.9463
rtoes 1.39299
lfemur -12.0256 8.40829 -12.8597
ltibia 26.7559
lfoot -9.69548 2.30446
ltoes -21.9677
